<?xml version="1.0" ?><!DOCTYPE svg  PUBLIC '-//W3C//DTD SVG 1.1//EN'  'http://www.w3.org/Graphics/SVG/1.1/DTD/svg11.dtd'><svg enable-background="new 0 0 91 91" height="91px" id="Layer_1" version="1.1" viewBox="0 0 91 91" width="91px" xml:space="preserve" xmlns="http://www.w3.org/2000/svg" xmlns:xlink="http://www.w3.org/1999/xlink"><g><g><path d="M84.491,30.263H5.962c-1.383,0-2.504-1.119-2.504-2.504V10.221c0-1.383,1.121-2.506,2.504-2.506h78.529    c1.385,0,2.506,1.123,2.506,2.506v17.538C86.997,29.144,85.876,30.263,84.491,30.263z M8.468,25.252h73.52V12.727H8.468V25.252z" fill="#45596B"/><g><g><rect fill="#6EC4A7" height="6.836" width="6.834" x="64.108" y="65.814"/><path d="M71.776,73.486h-8.502V64.98h8.502V73.486z M64.944,71.816h5.162V66.65h-5.162V71.816z" fill="#6EC4A7"/></g><g><rect fill="#6EC4A7" height="6.838" width="6.836" x="41.812" y="42.343"/><path d="M49.481,50.017h-8.505v-8.508h8.505V50.017z M42.646,48.347h5.166v-5.168h-5.166V48.347z" fill="#6EC4A7"/></g><g><rect fill="#6EC4A7" height="6.836" width="6.83" x="19.519" y="65.814"/><path d="M27.183,73.486h-8.5V64.98h8.5V73.486z M20.353,71.816h5.16V66.65h-5.16V71.816z" fill="#6EC4A7"/></g><g><g><rect fill="#647F94" height="8.508" width="8.5" x="18.683" y="41.509"/><g><rect fill="#647F94" height="8.506" width="8.505" x="40.977" y="64.98"/><path d="M84.491,25.256H5.964c-1.383,0-2.505,1.121-2.505,2.504v60.044c0,1.383,1.122,2.504,2.505,2.504        h70.627c5.738,0,10.406-4.668,10.406-10.406V27.761C86.997,26.377,85.874,25.256,84.491,25.256z M31.358,75.154        c0,1.385-1.122,2.506-2.505,2.506H17.013c-1.383,0-2.504-1.121-2.504-2.506V63.311c0-1.385,1.121-2.506,2.504-2.506h11.841        c1.383,0,2.505,1.121,2.505,2.506V75.154z M31.358,51.685c0,1.383-1.122,2.506-2.505,2.506H17.013        c-1.383,0-2.504-1.123-2.504-2.506V39.839c0-1.383,1.121-2.506,2.504-2.506h11.841c1.383,0,2.505,1.123,2.505,2.506V51.685z         M53.657,75.154c0,1.385-1.123,2.506-2.506,2.506H39.308c-1.383,0-2.506-1.121-2.506-2.506V63.311        c0-1.385,1.123-2.506,2.506-2.506h11.844c1.383,0,2.506,1.121,2.506,2.506V75.154z M53.657,51.685        c0,1.383-1.123,2.506-2.506,2.506H39.308c-1.383,0-2.506-1.123-2.506-2.506V39.839c0-1.383,1.123-2.506,2.506-2.506h11.844        c1.383,0,2.506,1.123,2.506,2.506V51.685z M75.952,75.154c0,1.385-1.121,2.506-2.504,2.506H61.604        c-1.383,0-2.506-1.121-2.506-2.506V63.311c0-1.385,1.123-2.506,2.506-2.506h11.844c1.383,0,2.504,1.121,2.504,2.506V75.154z         M75.952,51.685c0,1.383-1.121,2.506-2.504,2.506H61.604c-1.383,0-2.506-1.123-2.506-2.506V39.839        c0-1.383,1.123-2.506,2.506-2.506h11.844c1.383,0,2.504,1.123,2.504,2.506V51.685z" fill="#647F94"/></g></g><rect fill="#647F94" height="8.508" width="8.502" x="63.274" y="41.509"/></g></g><path d="M21.766,20.28c-1.384,0-2.505-1.121-2.505-2.504V2.909c0-1.383,1.121-2.506,2.505-2.506    s2.505,1.123,2.505,2.506v14.867C24.271,19.159,23.149,20.28,21.766,20.28z" fill="#45596B"/><path d="M45.228,20.28c-1.385,0-2.506-1.121-2.506-2.504V2.909c0-1.383,1.121-2.506,2.506-2.506    c1.383,0,2.504,1.123,2.504,2.506v14.867C47.731,19.159,46.61,20.28,45.228,20.28z" fill="#45596B"/><path d="M68.692,20.28c-1.385,0-2.506-1.121-2.506-2.504V2.909c0-1.383,1.121-2.506,2.506-2.506    c1.383,0,2.504,1.123,2.504,2.506v14.867C71.196,19.159,70.075,20.28,68.692,20.28z" fill="#45596B"/></g></g></svg>