<?xml version="1.0" ?><!DOCTYPE svg  PUBLIC '-//W3C//DTD SVG 1.1//EN'  'http://www.w3.org/Graphics/SVG/1.1/DTD/svg11.dtd'><svg enable-background="new 0 0 91 91" height="91px" id="Layer_1" version="1.1" viewBox="0 0 91 91" width="91px" xml:space="preserve" xmlns="http://www.w3.org/2000/svg" xmlns:xlink="http://www.w3.org/1999/xlink"><g><g><path d="M64.292,13.277c-0.002-0.025-0.01-0.047-0.01-0.072c0-0.024,0.008-0.047,0.01-0.072V6.758h-8.936    c-1.07,0-2.053-0.606-2.525-1.567c-1.402-2.841-4.217-4.605-7.338-4.605c-3.129,0-5.941,1.764-7.346,4.604    c-0.473,0.961-1.455,1.568-2.521,1.568h-8.938v6.41c0,0.013,0.004,0.024,0.004,0.037c0,0.013-0.004,0.024-0.004,0.036v6.412    h37.604V13.277z" fill="#6EC4A7"/><path d="M69.923,16.021v6.448c0,1.554-1.26,2.815-2.814,2.815H23.876c-1.559,0-2.816-1.261-2.816-2.815v-6.448    H9.597v74.682h66.164c3.279,0,5.943-2.666,5.943-5.939V16.021H69.923z" fill="#647F94"/><path d="M29.911,75.561h-9.264c-1.555,0-2.814-1.26-2.814-2.813c0-1.557,1.26-2.816,2.814-2.816h9.264    c1.557,0,2.814,1.26,2.814,2.816C32.726,74.301,31.468,75.561,29.911,75.561z M45.894,75.561h-6.879    c-1.553,0-2.814-1.26-2.814-2.813c0-1.557,1.262-2.816,2.814-2.816h6.879c1.553,0,2.814,1.26,2.814,2.816    C48.708,74.301,47.446,75.561,45.894,75.561z M64.046,75.561h-8.781c-1.557,0-2.818-1.26-2.818-2.813    c0-1.557,1.262-2.816,2.818-2.816h8.781c1.551,0,2.814,1.26,2.814,2.816C66.86,74.301,65.597,75.561,64.046,75.561z     M70.649,58.609H20.647c-1.555,0-2.814-1.26-2.814-2.814c0-1.557,1.26-2.816,2.814-2.816h50.002c1.557,0,2.814,1.26,2.814,2.816    C73.464,57.35,72.206,58.609,70.649,58.609z M70.649,41.666H20.647c-1.555,0-2.814-1.26-2.814-2.815    c0-1.556,1.26-2.816,2.814-2.816h50.002c1.557,0,2.814,1.261,2.814,2.816C73.464,40.406,72.206,41.666,70.649,41.666z" fill="#95AEC2"/></g></g></svg>