<?xml version="1.0" ?><!DOCTYPE svg  PUBLIC '-//W3C//DTD SVG 1.1//EN'  'http://www.w3.org/Graphics/SVG/1.1/DTD/svg11.dtd'><svg enable-background="new 0 0 91 91" height="91px" id="Layer_1" version="1.1" viewBox="0 0 91 91" width="91px" xml:space="preserve" xmlns="http://www.w3.org/2000/svg" xmlns:xlink="http://www.w3.org/1999/xlink"><g><g><path d="M26.939,49.462c11.592,0,21.029-9.5,21.029-21.176S38.531,7.11,26.939,7.11    c-11.588,0-21.018,9.5-21.018,21.176S15.352,49.462,26.939,49.462z" fill="#647F94"/><path d="M44.877,46.202c-4.586,4.643-10.932,7.525-17.938,7.525c-6.934,0-13.219-2.828-17.793-7.393    c-5.633,2.715-8.414,6.75-8.414,12.334V78.19c2.818,1.563,9.678,7.268,26.553,7.268c17.029,0,24.127-5.578,26.24-7.088V58.665    C53.525,52.974,50.666,48.897,44.877,46.202z" fill="#647F94"/></g><path d="M87.191,20.282H57.453c-1.846,0-3.34-1.494-3.34-3.34c0-1.844,1.494-3.34,3.34-3.34h29.738   c1.842,0,3.34,1.496,3.34,3.34C90.531,18.788,89.033,20.282,87.191,20.282z" fill="#45596B"/><path d="M87.191,39.185H57.453c-1.846,0-3.34-1.496-3.34-3.34c0-1.846,1.494-3.34,3.34-3.34h29.738   c1.842,0,3.34,1.494,3.34,3.34C90.531,37.688,89.033,39.185,87.191,39.185z" fill="#45596B"/><path d="M87.193,58.085H62.418c-1.846,0-3.34-1.494-3.34-3.34c0-1.844,1.494-3.34,3.34-3.34h24.775   c1.844,0,3.34,1.496,3.34,3.34C90.533,56.591,89.037,58.085,87.193,58.085z" fill="#45596B"/><path d="M87.193,76.987H62.418c-1.846,0-3.34-1.496-3.34-3.34c0-1.846,1.494-3.34,3.34-3.34h24.775   c1.844,0,3.34,1.494,3.34,3.34C90.533,75.491,89.037,76.987,87.193,76.987z" fill="#45596B"/></g></svg>